<svg xmlns="http://www.w3.org/2000/svg" version="1.1" xmlns:xlink="http://www.w3.org/1999/xlink" width="512" height="512" x="0" y="0" viewBox="0 0 512.045 512.045" style="enable-background:new 0 0 512 512" xml:space="preserve" class=""><g><path d="M411.045 155.022C411.045 69.406 341.639 0 256.023 0S101 69.406 101 155.022s69.406 155.023 155.022 155.023 155.023-69.406 155.023-155.023zm-140.021 73.511v19.505h-30v-19.466c-21.141-3.195-37.398-21.486-37.398-43.504h30c0 7.72 6.281 14.001 14.001 14.001h16.506c8.008 0 14.523-6.516 14.523-14.524s-6.516-14.524-14.523-14.524h-16.218c-24.551 0-44.523-19.973-44.523-44.524 0-22.207 16.343-40.667 37.633-43.989V62.004h30v19.571c21.116 3.479 37.278 21.854 37.278 43.94h-30c0-8.019-6.523-14.542-14.542-14.542h-15.846c-8.008 0-14.523 6.516-14.523 14.524s6.516 14.524 14.523 14.524h16.218c24.55 0 44.523 19.973 44.523 44.524 0 22.207-16.343 40.665-37.632 43.988zM376.46 295.483a184.041 184.041 0 0 1-48.409 30.01 183.398 183.398 0 0 1-41.841 12.095v71.994h-30.125v27.213l75.25 75.25 75.25-75.25v-27.213H376.46zM225.835 337.588a183.463 183.463 0 0 1-41.841-12.095 184.041 184.041 0 0 1-48.409-30.01v66.105H105.46v27.213l75.25 75.25 75.25-75.25v-27.213h-30.125z" fill="#FFD900" opacity="1" data-original="#000000" class=""></path></g></svg>