<svg xmlns="http://www.w3.org/2000/svg" xmlns:xlink="http://www.w3.org/1999/xlink" width="512" zoomAndPan="magnify" viewBox="0 0 384 383.999986" height="512" preserveAspectRatio="xMidYMid meet" version="1.2"><defs><clipPath id="0290d38869"><path d="M 62.347656 185.199219 L 113.347656 185.199219 L 113.347656 261.699219 L 62.347656 261.699219 Z M 62.347656 185.199219 "/></clipPath><clipPath id="3077870335"><path d="M 112.398438 81.144531 L 271.398438 81.144531 L 271.398438 166.644531 L 112.398438 166.644531 Z M 112.398438 81.144531 "/></clipPath><clipPath id="e191dbb857"><path d="M 176 151 L 191 151 L 191 166.644531 L 176 166.644531 Z M 176 151 "/></clipPath><clipPath id="fad86fa2da"><path d="M 192 151 L 208 151 L 208 166.644531 L 192 166.644531 Z M 192 151 "/></clipPath><clipPath id="2114d82988"><path d="M 126 97 L 258 97 L 258 166.644531 L 126 166.644531 Z M 126 97 "/></clipPath></defs><g id="345d398871"><path style=" stroke:none;fill-rule:nonzero;fill:#ffd900;fill-opacity:1;" d="M 367.890625 192.042969 C 367.890625 172.199219 380.351562 150.574219 374.566406 132.6875 C 368.515625 114.085938 345.554688 104.03125 334.339844 88.546875 C 322.949219 72.972656 320.457031 48.054688 304.796875 36.664062 C 289.3125 25.453125 264.925781 30.613281 246.328125 24.5625 C 228.441406 18.777344 211.800781 0 191.953125 0 C 172.109375 0 155.46875 18.777344 137.582031 24.5625 C 118.980469 30.613281 94.597656 25.363281 79.113281 36.664062 C 63.449219 48.054688 60.871094 72.972656 49.566406 88.546875 C 38.355469 104.03125 15.304688 114.085938 9.34375 132.6875 C 3.558594 150.574219 16.015625 172.199219 16.015625 192.042969 C 16.015625 211.890625 3.558594 233.515625 9.34375 251.402344 C 15.304688 269.914062 38.265625 279.96875 49.566406 295.453125 C 60.957031 311.027344 63.449219 336.035156 79.113281 347.335938 C 94.597656 358.546875 118.980469 353.386719 137.582031 359.4375 C 155.46875 365.222656 172.109375 384 191.953125 384 C 211.800781 384 228.441406 365.222656 246.328125 359.4375 C 264.925781 353.386719 289.3125 358.636719 304.796875 347.335938 C 320.371094 335.945312 322.949219 311.027344 334.339844 295.453125 C 345.554688 279.96875 368.601562 269.914062 374.566406 251.3125 C 380.4375 233.425781 367.890625 211.890625 367.890625 192.042969 Z M 367.890625 192.042969 "/><path style=" stroke:none;fill-rule:nonzero;fill:#00254a;fill-opacity:1;" d="M 191.953125 365.488281 C 180.832031 365.488281 170.953125 359.261719 161.339844 353.207031 C 155.023438 349.203125 148.972656 345.378906 142.742188 343.417969 C 136.15625 341.285156 128.503906 340.75 121.117188 340.214844 C 109.992188 339.414062 98.511719 338.613281 89.96875 332.382812 C 81.335938 326.066406 76.976562 315.386719 72.792969 304.976562 C 70.035156 298.121094 67.1875 291.09375 63.183594 285.574219 C 59.265625 280.144531 53.484375 275.339844 47.875 270.625 C 39.246094 263.414062 30.257812 255.941406 26.964844 245.617188 C 23.757812 235.738281 26.519531 224.703125 29.1875 214.027344 C 30.96875 206.726562 32.925781 199.164062 32.925781 192.042969 C 32.925781 184.925781 31.058594 177.359375 29.1875 170.0625 C 26.519531 159.382812 23.757812 148.261719 26.964844 138.472656 C 30.34375 128.148438 39.246094 120.671875 47.875 113.464844 C 53.484375 108.835938 59.265625 103.941406 63.183594 98.515625 C 67.1875 92.996094 70.035156 85.964844 72.792969 79.113281 C 76.976562 68.703125 81.335938 58.023438 89.96875 51.703125 C 98.511719 45.476562 109.992188 44.675781 121.117188 43.875 C 128.503906 43.339844 136.15625 42.804688 142.742188 40.667969 C 148.972656 38.621094 154.933594 34.886719 161.339844 30.878906 C 170.953125 24.828125 180.832031 18.597656 191.953125 18.597656 C 203.078125 18.597656 212.957031 24.828125 222.566406 30.878906 C 228.886719 34.886719 234.9375 38.710938 241.167969 40.667969 C 247.753906 42.804688 255.40625 43.339844 262.792969 43.875 C 273.914062 44.675781 285.394531 45.476562 293.9375 51.703125 C 302.570312 58.023438 306.933594 68.703125 311.113281 79.113281 C 313.875 85.964844 316.722656 92.996094 320.726562 98.515625 C 324.640625 103.941406 330.425781 108.75 336.03125 113.464844 C 344.664062 120.671875 353.652344 128.148438 356.945312 138.472656 C 360.148438 148.347656 357.390625 159.382812 354.71875 170.0625 C 352.941406 177.359375 350.984375 184.925781 350.984375 192.042969 C 350.984375 199.164062 352.851562 206.726562 354.71875 214.027344 C 357.390625 224.703125 360.148438 235.828125 356.945312 245.617188 C 353.5625 255.941406 344.664062 263.414062 336.03125 270.625 C 330.425781 275.25 324.640625 280.148438 320.726562 285.574219 C 316.722656 291.09375 313.871094 298.121094 311.113281 304.976562 C 306.933594 315.386719 302.570312 326.066406 293.9375 332.382812 C 285.394531 338.613281 273.914062 339.414062 262.792969 340.214844 C 255.40625 340.75 247.753906 341.285156 241.167969 343.417969 C 234.9375 345.464844 228.976562 349.203125 222.566406 353.207031 C 212.957031 359.171875 203.078125 365.488281 191.953125 365.488281 Z M 191.953125 21.269531 C 181.632812 21.269531 172.019531 27.320312 162.765625 33.105469 C 156.535156 37.019531 150.128906 41.113281 143.542969 43.160156 C 136.601562 45.386719 128.859375 45.917969 121.292969 46.453125 C 110.082031 47.253906 99.492188 47.964844 91.480469 53.75 C 83.472656 59.625 79.289062 69.949219 75.195312 80.003906 C 72.347656 86.945312 69.5 94.242188 65.230469 100.027344 C 61.046875 105.722656 55.171875 110.617188 49.476562 115.421875 C 41.113281 122.363281 32.480469 129.570312 29.367188 139.183594 C 26.429688 148.261719 28.921875 158.496094 31.679688 169.351562 C 33.546875 176.828125 35.417969 184.570312 35.417969 191.957031 C 35.417969 199.339844 33.460938 207.085938 31.679688 214.558594 C 29.011719 225.417969 26.429688 235.5625 29.367188 244.726562 C 32.480469 254.339844 41.113281 261.546875 49.476562 268.488281 C 55.171875 273.292969 61.136719 278.1875 65.230469 283.882812 C 69.414062 289.667969 72.347656 296.875 75.195312 303.90625 C 79.203125 313.964844 83.382812 324.285156 91.480469 330.160156 C 99.402344 335.945312 109.992188 336.65625 121.292969 337.457031 C 128.859375 337.992188 136.691406 338.523438 143.542969 340.75 C 150.128906 342.886719 156.535156 346.890625 162.765625 350.804688 C 172.019531 356.679688 181.632812 362.640625 191.953125 362.640625 C 202.277344 362.640625 211.886719 356.589844 221.144531 350.804688 C 227.371094 346.890625 233.78125 342.796875 240.367188 340.75 C 247.308594 338.523438 255.050781 337.992188 262.613281 337.457031 C 273.828125 336.65625 284.417969 335.945312 292.425781 330.160156 C 300.433594 324.285156 304.617188 313.964844 308.710938 303.90625 C 311.558594 296.964844 314.40625 289.667969 318.679688 283.882812 C 322.859375 278.1875 328.734375 273.292969 334.429688 268.488281 C 342.796875 261.546875 351.425781 254.339844 354.542969 244.726562 C 357.480469 235.652344 354.988281 225.417969 352.230469 214.558594 C 350.359375 207.085938 348.492188 199.339844 348.492188 191.957031 C 348.492188 184.480469 350.449219 176.828125 352.230469 169.351562 C 354.898438 158.496094 357.480469 148.347656 354.542969 139.183594 C 351.425781 129.570312 342.796875 122.363281 334.429688 115.421875 C 328.734375 110.617188 322.773438 105.722656 318.679688 100.027344 C 314.496094 94.242188 311.558594 87.035156 308.710938 80.003906 C 304.707031 69.949219 300.523438 59.625 292.425781 53.75 C 284.503906 47.964844 273.914062 47.253906 262.613281 46.453125 C 255.050781 45.917969 247.21875 45.386719 240.367188 43.160156 C 233.78125 41.023438 227.371094 37.019531 221.144531 33.105469 C 211.800781 27.230469 202.277344 21.269531 191.953125 21.269531 Z M 191.953125 21.269531 "/><g clip-rule="nonzero" clip-path="url(#0290d38869)"><path style=" stroke:none;fill-rule:nonzero;fill:#000000;fill-opacity:1;" d="M 97.996094 193.714844 L 110.691406 193.714844 L 113.347656 185.222656 L 65.003906 185.222656 L 62.347656 193.714844 L 79.347656 193.714844 C 85.878906 193.714844 91.367188 197.953125 93.367188 203.804688 L 65.003906 203.804688 L 62.347656 212.300781 L 93.695312 212.300781 C 92.039062 218.699219 86.269531 223.449219 79.347656 223.449219 L 62.347656 223.449219 L 62.347656 229.972656 L 93.691406 261.675781 L 104.847656 261.675781 L 104.847656 260.613281 L 75.097656 230.882812 C 77.707031 230.882812 80.804688 230.882812 81.472656 230.882812 C 92.523438 230.882812 101.628906 222.835938 103.410156 212.300781 L 110.691406 212.300781 L 113.347656 203.804688 L 103.242188 203.804688 C 102.402344 199.964844 100.535156 196.535156 97.996094 193.714844 Z M 97.996094 193.714844 "/></g><g style="fill:#000000;fill-opacity:1;"><g transform="translate(119.202895, 249.071998)"><path style="stroke:none" d="M 2.015625 -42.796875 L 2.015625 -54.703125 L 22.78125 -54.703125 L 22.78125 0 L 9.4375 0 L 9.4375 -42.796875 Z M 2.015625 -42.796875 "/></g></g><g style="fill:#000000;fill-opacity:1;"><g transform="translate(147.37978, 249.071998)"><path style="stroke:none" d="M 3.671875 -9.734375 L 3.671875 -20.078125 L 27.359375 -53.953125 L 41.671875 -53.953125 L 41.671875 -20.828125 L 47.8125 -20.828125 L 47.8125 -9.734375 L 41.671875 -9.734375 L 41.671875 0 L 28.84375 0 L 28.84375 -9.734375 Z M 29.75 -39.859375 L 17.15625 -20.828125 L 29.75 -20.828125 Z M 29.75 -39.859375 "/></g></g><g style="fill:#000000;fill-opacity:1;"><g transform="translate(198.113153, 249.071998)"><path style="stroke:none" d="M 17.15625 -16.03125 C 17.90625 -12.082031 20.207031 -10.109375 24.0625 -10.109375 C 26.707031 -10.109375 28.578125 -11.28125 29.671875 -13.625 C 30.773438 -15.976562 31.328125 -19.804688 31.328125 -25.109375 C 30.222656 -23.554688 28.722656 -22.351562 26.828125 -21.5 C 24.929688 -20.65625 22.804688 -20.234375 20.453125 -20.234375 C 17.253906 -20.234375 14.40625 -20.894531 11.90625 -22.21875 C 9.414062 -23.539062 7.457031 -25.515625 6.03125 -28.140625 C 4.601562 -30.765625 3.890625 -33.945312 3.890625 -37.6875 C 3.890625 -41.382812 4.648438 -44.609375 6.171875 -47.359375 C 7.703125 -50.109375 9.878906 -52.234375 12.703125 -53.734375 C 15.523438 -55.234375 18.859375 -55.984375 22.703125 -55.984375 C 30.097656 -55.984375 35.269531 -53.679688 38.21875 -49.078125 C 41.164062 -44.484375 42.640625 -37.71875 42.640625 -28.78125 C 42.640625 -22.28125 42.050781 -16.921875 40.875 -12.703125 C 39.707031 -8.484375 37.734375 -5.273438 34.953125 -3.078125 C 32.179688 -0.878906 28.398438 0.21875 23.609375 0.21875 C 19.804688 0.21875 16.566406 -0.523438 13.890625 -2.015625 C 11.222656 -3.515625 9.175781 -5.488281 7.75 -7.9375 C 6.332031 -10.382812 5.523438 -13.082031 5.328125 -16.03125 Z M 23.375 -30.34375 C 25.476562 -30.34375 27.15625 -30.976562 28.40625 -32.25 C 29.65625 -33.53125 30.28125 -35.269531 30.28125 -37.46875 C 30.28125 -39.863281 29.628906 -41.710938 28.328125 -43.015625 C 27.023438 -44.316406 25.273438 -44.96875 23.078125 -44.96875 C 20.878906 -44.96875 19.144531 -44.300781 17.875 -42.96875 C 16.601562 -41.644531 15.96875 -39.835938 15.96875 -37.546875 C 15.96875 -35.398438 16.601562 -33.660156 17.875 -32.328125 C 19.144531 -31.003906 20.976562 -30.34375 23.375 -30.34375 Z M 23.375 -30.34375 "/></g></g><g style="fill:#000000;fill-opacity:1;"><g transform="translate(244.200337, 249.071998)"><path style="stroke:none" d="M 33.203125 -71.1875 L 13.109375 14.015625 L 0.75 14.015625 L 20.828125 -71.1875 Z M 33.203125 -71.1875 "/></g></g><g style="fill:#000000;fill-opacity:1;"><g transform="translate(278.147495, 249.071998)"><path style="stroke:none" d="M 36.875 -31.625 L 36.875 -20.984375 L 3.890625 -20.984375 L 3.890625 -31.625 Z M 36.875 -31.625 "/></g></g><g clip-rule="nonzero" clip-path="url(#3077870335)"><path style=" stroke:none;fill-rule:nonzero;fill:#000000;fill-opacity:1;" d="M 271.199219 165.773438 L 256.296875 149.699219 L 241.738281 134.078125 C 241.929688 124.363281 242.175781 114.644531 242.3125 104.929688 C 242.328125 103.886719 241.496094 103.027344 240.453125 103.011719 L 240.394531 103.011719 L 224.730469 102.753906 C 223.550781 102.734375 222.578125 103.675781 222.558594 104.859375 L 222.554688 104.929688 L 222.433594 112.535156 L 210.304688 99.640625 L 194.195312 82.441406 L 194.140625 82.386719 C 192.914062 81.144531 190.917969 81.128906 189.675781 82.351562 L 189.582031 82.441406 C 182.847656 89.078125 176.0625 95.667969 169.457031 102.425781 C 162.839844 109.175781 156.347656 116.046875 149.949219 123.011719 C 146.722656 126.46875 143.550781 129.972656 140.386719 133.488281 C 137.195312 136.980469 134.078125 140.539062 130.945312 144.082031 C 124.707031 151.203125 118.523438 158.375 112.578125 165.773438 C 112.472656 165.90625 112.472656 166.101562 112.582031 166.234375 C 112.710938 166.386719 112.941406 166.40625 113.09375 166.277344 C 120.320312 160.117188 127.3125 153.734375 134.253906 147.300781 C 137.703125 144.0625 141.175781 140.84375 144.570312 137.558594 C 147.996094 134.292969 151.410156 131.019531 154.773438 127.699219 C 161.550781 121.105469 168.234375 114.421875 174.796875 107.617188 C 180.609375 101.59375 186.289062 95.445312 191.984375 89.304688 L 206.316406 103.519531 L 223.011719 120.148438 L 223.074219 120.207031 C 223.511719 120.640625 224.121094 120.90625 224.789062 120.894531 C 226.101562 120.875 227.148438 119.792969 227.128906 118.476562 L 226.941406 107.070312 L 238.507812 106.878906 C 238.648438 116.117188 238.882812 125.355469 239.058594 134.59375 L 239.058594 134.648438 C 239.070312 134.964844 239.195312 135.28125 239.4375 135.523438 L 255.039062 150.917969 L 270.6875 166.277344 C 270.820312 166.40625 271.039062 166.414062 271.179688 166.28125 C 271.328125 166.148438 271.332031 165.921875 271.199219 165.773438 "/></g><path style=" stroke:none;fill-rule:nonzero;fill:#000000;fill-opacity:1;" d="M 176.414062 149.5625 L 190.804688 149.5625 L 190.804688 135.171875 L 176.414062 135.171875 L 176.414062 149.5625 "/><g clip-rule="nonzero" clip-path="url(#e191dbb857)"><path style=" stroke:none;fill-rule:nonzero;fill:#000000;fill-opacity:1;" d="M 176.414062 166.027344 L 190.804688 166.027344 L 190.804688 151.632812 L 176.414062 151.632812 L 176.414062 166.027344 "/></g><g clip-rule="nonzero" clip-path="url(#fad86fa2da)"><path style=" stroke:none;fill-rule:nonzero;fill:#000000;fill-opacity:1;" d="M 192.972656 166.027344 L 207.363281 166.027344 L 207.363281 151.632812 L 192.972656 151.632812 L 192.972656 166.027344 "/></g><path style=" stroke:none;fill-rule:nonzero;fill:#000000;fill-opacity:1;" d="M 192.972656 149.5625 L 207.363281 149.5625 L 207.363281 135.171875 L 192.972656 135.171875 L 192.972656 149.5625 "/><g clip-rule="nonzero" clip-path="url(#2114d82988)"><path style=" stroke:none;fill-rule:nonzero;fill:#000000;fill-opacity:1;" d="M 225.222656 131.757812 C 219.855469 126.058594 214.402344 120.441406 208.992188 114.78125 L 192.65625 97.898438 L 192.632812 97.871094 C 192.207031 97.460938 191.53125 97.472656 191.117188 97.898438 L 174.789062 114.785156 C 169.375 120.441406 163.925781 126.0625 158.554688 131.761719 L 142.398438 148.816406 C 137.070312 154.554688 131.6875 160.242188 126.40625 166.027344 C 132.035156 160.578125 137.566406 155.039062 143.15625 149.546875 L 159.738281 132.910156 C 165.28125 127.378906 170.746094 121.769531 176.246094 116.199219 L 191.886719 100.1875 L 207.527344 116.199219 C 213.03125 121.769531 218.496094 127.382812 224.035156 132.914062 L 240.625 149.546875 C 246.210938 155.039062 251.742188 160.582031 257.371094 166.027344 C 252.09375 160.242188 246.710938 154.554688 241.382812 148.8125 L 225.222656 131.757812 "/></g></g></svg>