<svg xmlns="http://www.w3.org/2000/svg" version="1.1" xmlns:xlink="http://www.w3.org/1999/xlink" width="512" height="512" x="0" y="0" viewBox="0 0 32 32" style="enable-background:new 0 0 512 512" xml:space="preserve" class=""><g><path d="M4 17H2v12h2a1 1 0 0 0 1-1V18a1 1 0 0 0-1-1zM28.854 18.338a2.346 2.346 0 0 0-2.336-.051l-6.549 3.52a2.495 2.495 0 0 1-2.469 2.194h-4.02a.5.5 0 1 1 0-1h4.02c.827 0 1.5-.673 1.5-1.5a1.5 1.5 0 0 0-1.454-1.495c-.3-.003-5.132-.005-5.132-.005l-1.707-1.706a1 1 0 0 0-.707-.293H6v10h1.766L11 29c1.344.432 2.781 1 4.374 1 1.44 0 2.858-.477 4.083-1.416l9.523-6.303A2.342 2.342 0 0 0 30 20.35c0-.833-.428-1.585-1.146-2.012z" fill="#FFD900" opacity="1" data-original="#000000" class=""></path><path d="M14 19v-4a1 1 0 0 1 1-1h2a1 1 0 0 1 1 1v4z" fill="#FFD900" opacity="1" data-original="#000000" class=""></path><path d="M29 12h-1.693c-.141-.4-.302-.79-.482-1.168l1.196-1.196a1 1 0 0 0 0-1.414l-4.243-4.243a1 1 0 0 0-1.414 0l-1.196 1.196c-.377-.18-.768-.341-1.168-.482V3a1 1 0 0 0-1-1h-6a1 1 0 0 0-1 1v1.693c-.4.141-.79.302-1.168.482L9.636 3.979a1 1 0 0 0-1.414 0L3.979 8.222a1 1 0 0 0 0 1.414l1.196 1.196c-.18.377-.341.768-.482 1.168H3a1 1 0 0 0-1 1v3h2c.738 0 1.376.406 1.723 1.001H9V13h14v6.042l3.044-1.636A3.376 3.376 0 0 1 27.642 17a3.365 3.365 0 0 1 2.358.97V13a1 1 0 0 0-1-1zm-4.04-.724A1 1 0 0 1 24 12H8a1 1 0 0 1-.53-1.848l8-5a1.001 1.001 0 0 1 1.06 0l8 5a1 1 0 0 1 .43 1.124z" fill="#FFD900" opacity="1" data-original="#000000" class=""></path></g></svg>