<svg xmlns="http://www.w3.org/2000/svg" version="1.1" xmlns:xlink="http://www.w3.org/1999/xlink" width="512" height="512" x="0" y="0" viewBox="0 0 472.047 472.047" style="enable-background:new 0 0 512 512" xml:space="preserve" class=""><g><path d="m452.842 431.982-10.925-32.184c-19.086-56.186-68.4-95.763-126.107-103.326-21.408 23.559-49.274 37.939-79.797 37.939-30.516 0-58.375-14.38-79.783-37.939-57.7 7.563-107.014 47.14-126.1 103.326l-10.925 32.184a30.303 30.303 0 0 0 4.061 27.409 30.315 30.315 0 0 0 24.645 12.656h376.224a30.315 30.315 0 0 0 28.707-40.065z" fill="#FFD900" opacity="1" data-original="#000000"></path><path d="M236.013 310.558c53.266 0 96.507-56.559 97.967-127.023H138.068c1.46 70.464 44.701 127.023 97.945 127.023zM116.133 152.296c3.184 1.57 6.709 2.532 10.498 2.532H345.425c3.781 0 7.315-.962 10.491-2.532 7.889-3.882 13.363-11.927 13.363-21.322 0-13.176-10.677-23.853-23.853-23.853h-4.379c-.682-3.456-1.49-6.871-2.352-10.273-6.507-25.631-18.256-49.476-34.778-67.32v17.324c0 8.781-7.121 15.902-15.902 15.902-8.783 0-15.902-7.121-15.902-15.902V6.079C265.782 3.238 259.004 1.272 251.921 0v64.191c0 8.781-7.119 15.902-15.902 15.902-8.781 0-15.902-7.121-15.902-15.902V0c-7.081 1.272-13.852 3.238-20.18 6.071v40.781c0 8.781-7.121 15.902-15.902 15.902-8.781 0-15.902-7.121-15.902-15.902V29.529c-16.516 17.836-28.257 41.665-34.762 67.282-.87 3.416-1.678 6.84-2.361 10.311h-4.379c-13.177 0-23.853 10.677-23.853 23.853-.001 9.387 5.473 17.432 13.355 21.321z" fill="#FFD900" opacity="1" data-original="#000000"></path></g></svg>